%TF.GenerationSoftware,KiCad,Pcbnew,9.0.4*%
%TF.CreationDate,2026-01-14T14:58:21-05:00*%
%TF.ProjectId,Datta Lab Humidity Chamber PCB,44617474-6120-44c6-9162-2048756d6964,1.0*%
%TF.SameCoordinates,Original*%
%TF.FileFunction,Soldermask,Top*%
%TF.FilePolarity,Negative*%
%FSLAX46Y46*%
G04 Gerber Fmt 4.6, Leading zero omitted, Abs format (unit mm)*
G04 Created by KiCad (PCBNEW 9.0.4) date 2026-01-14 14:58:22*
%MOMM*%
%LPD*%
G01*
G04 APERTURE LIST*
G04 Aperture macros list*
%AMRoundRect*
0 Rectangle with rounded corners*
0 $1 Rounding radius*
0 $2 $3 $4 $5 $6 $7 $8 $9 X,Y pos of 4 corners*
0 Add a 4 corners polygon primitive as box body*
4,1,4,$2,$3,$4,$5,$6,$7,$8,$9,$2,$3,0*
0 Add four circle primitives for the rounded corners*
1,1,$1+$1,$2,$3*
1,1,$1+$1,$4,$5*
1,1,$1+$1,$6,$7*
1,1,$1+$1,$8,$9*
0 Add four rect primitives between the rounded corners*
20,1,$1+$1,$2,$3,$4,$5,0*
20,1,$1+$1,$4,$5,$6,$7,0*
20,1,$1+$1,$6,$7,$8,$9,0*
20,1,$1+$1,$8,$9,$2,$3,0*%
%AMFreePoly0*
4,1,23,0.500000,-0.750000,0.000000,-0.750000,0.000000,-0.745722,-0.065263,-0.745722,-0.191342,-0.711940,-0.304381,-0.646677,-0.396677,-0.554381,-0.461940,-0.441342,-0.495722,-0.315263,-0.495722,-0.250000,-0.500000,-0.250000,-0.500000,0.250000,-0.495722,0.250000,-0.495722,0.315263,-0.461940,0.441342,-0.396677,0.554381,-0.304381,0.646677,-0.191342,0.711940,-0.065263,0.745722,0.000000,0.745722,
0.000000,0.750000,0.500000,0.750000,0.500000,-0.750000,0.500000,-0.750000,$1*%
%AMFreePoly1*
4,1,23,0.000000,0.745722,0.065263,0.745722,0.191342,0.711940,0.304381,0.646677,0.396677,0.554381,0.461940,0.441342,0.495722,0.315263,0.495722,0.250000,0.500000,0.250000,0.500000,-0.250000,0.495722,-0.250000,0.495722,-0.315263,0.461940,-0.441342,0.396677,-0.554381,0.304381,-0.646677,0.191342,-0.711940,0.065263,-0.745722,0.000000,-0.745722,0.000000,-0.750000,-0.500000,-0.750000,
-0.500000,0.750000,0.000000,0.750000,0.000000,0.745722,0.000000,0.745722,$1*%
G04 Aperture macros list end*
%ADD10C,1.600000*%
%ADD11R,1.295400X0.838200*%
%ADD12R,2.260600X1.397000*%
%ADD13O,1.600000X1.600000*%
%ADD14RoundRect,0.101600X0.299720X0.674370X-0.299720X0.674370X-0.299720X-0.674370X0.299720X-0.674370X0*%
%ADD15RoundRect,0.101600X0.599440X0.999490X-0.599440X0.999490X-0.599440X-0.999490X0.599440X-0.999490X0*%
%ADD16C,3.200000*%
%ADD17C,2.000000*%
%ADD18R,1.700000X1.700000*%
%ADD19C,1.700000*%
%ADD20R,2.600000X2.600000*%
%ADD21C,2.600000*%
%ADD22O,1.600000X2.500000*%
%ADD23O,3.500000X7.000000*%
%ADD24FreePoly0,90.000000*%
%ADD25FreePoly1,90.000000*%
%ADD26C,1.397000*%
%ADD27R,1.800000X1.800000*%
%ADD28C,1.800000*%
%ADD29RoundRect,0.102000X1.387500X-1.387500X1.387500X1.387500X-1.387500X1.387500X-1.387500X-1.387500X0*%
%ADD30C,2.979000*%
%ADD31R,1.600000X1.600000*%
G04 APERTURE END LIST*
D10*
%TO.C,R7*%
X162560000Y-102870000D03*
X162560000Y-92710000D03*
%TD*%
%TO.C,R5*%
X158750000Y-92710000D03*
X158750000Y-102870000D03*
%TD*%
%TO.C,R3*%
X129540000Y-80010000D03*
X129540000Y-90170000D03*
%TD*%
%TO.C,R12*%
X162560000Y-68580000D03*
X162560000Y-78740000D03*
%TD*%
%TO.C,R10*%
X121920000Y-80010000D03*
X121920000Y-90170000D03*
%TD*%
%TO.C,R4*%
X133350000Y-80010000D03*
X133350000Y-90170000D03*
%TD*%
%TO.C,R6*%
X158750000Y-78740000D03*
X158750000Y-68580000D03*
%TD*%
%TO.C,R13*%
X154940000Y-92710000D03*
X154940000Y-102870000D03*
%TD*%
%TO.C,R11*%
X151130000Y-102870000D03*
X151130000Y-92710000D03*
%TD*%
%TO.C,R8*%
X154940000Y-78740000D03*
X154940000Y-68580000D03*
%TD*%
%TO.C,R2*%
X151130000Y-68580000D03*
X151130000Y-78740000D03*
%TD*%
D11*
%TO.C,J16*%
X213114999Y-112436665D03*
X213114999Y-111186665D03*
X213114999Y-109936665D03*
X213114999Y-108686665D03*
X213114999Y-107436665D03*
X213114999Y-106186665D03*
D12*
X210820000Y-114336666D03*
X210820000Y-104286664D03*
%TD*%
%TO.C,J24*%
X210820000Y-42573333D03*
X210820000Y-52623335D03*
D11*
X213114999Y-44473334D03*
X213114999Y-45723334D03*
X213114999Y-46973334D03*
X213114999Y-48223334D03*
X213114999Y-49473334D03*
X213114999Y-50723334D03*
%TD*%
D12*
%TO.C,J23*%
X210820000Y-74948333D03*
X210820000Y-84998335D03*
D11*
X213114999Y-76848334D03*
X213114999Y-78098334D03*
X213114999Y-79348334D03*
X213114999Y-80598334D03*
X213114999Y-81848334D03*
X213114999Y-83098334D03*
%TD*%
D12*
%TO.C,J15*%
X210820000Y-133459998D03*
X210820000Y-143510000D03*
D11*
X213114999Y-135359999D03*
X213114999Y-136609999D03*
X213114999Y-137859999D03*
X213114999Y-139109999D03*
X213114999Y-140359999D03*
X213114999Y-141609999D03*
%TD*%
D10*
%TO.C,R1*%
X67310000Y-99695000D03*
D13*
X67310000Y-109855000D03*
%TD*%
D12*
%TO.C,J21*%
X197705053Y-74930000D03*
X197705053Y-84980002D03*
D11*
X200000052Y-76830001D03*
X200000052Y-78080001D03*
X200000052Y-79330001D03*
X200000052Y-80580001D03*
X200000052Y-81830001D03*
X200000052Y-83080001D03*
%TD*%
D14*
%TO.C,J19*%
X74571013Y-44312840D03*
X73570253Y-44312840D03*
X72574573Y-44312840D03*
X71573813Y-44312840D03*
D15*
X70273333Y-40640000D03*
X75871493Y-40640000D03*
%TD*%
D10*
%TO.C,R9*%
X125730000Y-90170000D03*
X125730000Y-80010000D03*
%TD*%
D12*
%TO.C,J18*%
X185665001Y-42573333D03*
X185665001Y-52623335D03*
D11*
X187960000Y-44473334D03*
X187960000Y-45723334D03*
X187960000Y-46973334D03*
X187960000Y-48223334D03*
X187960000Y-49473334D03*
X187960000Y-50723334D03*
%TD*%
D16*
%TO.C,H6*%
X220980000Y-40640000D03*
%TD*%
D17*
%TO.C,TP3*%
X73660000Y-76200000D03*
%TD*%
D18*
%TO.C,J5*%
X73660000Y-58420000D03*
D19*
X73660000Y-60960000D03*
X73660000Y-63500000D03*
%TD*%
D20*
%TO.C,J7*%
X45720000Y-76200000D03*
D21*
X39720000Y-76200000D03*
X42720000Y-80900000D03*
%TD*%
D22*
%TO.C,J2*%
X134620000Y-51110000D03*
D23*
X129540000Y-46030000D03*
D22*
X132080000Y-51110000D03*
D23*
X139700000Y-46030000D03*
%TD*%
D24*
%TO.C,JP1*%
X53340000Y-102870000D03*
D25*
X53340000Y-101570000D03*
%TD*%
D26*
%TO.C,J8*%
X57150000Y-132080000D03*
X58420000Y-129540000D03*
X59690000Y-132080000D03*
X60960000Y-129540000D03*
X62230000Y-132080000D03*
X63500000Y-129540000D03*
X64770000Y-132080000D03*
X66040000Y-129540000D03*
X71120000Y-132080000D03*
X72390000Y-129540000D03*
X73660000Y-132080000D03*
X74930000Y-129540000D03*
X76200000Y-132080000D03*
X77470000Y-129540000D03*
X78740000Y-132080000D03*
X80010000Y-129540000D03*
X85090000Y-132080000D03*
X86360000Y-129540000D03*
X87630000Y-132080000D03*
X88900000Y-129540000D03*
X90170000Y-132080000D03*
X91440000Y-129540000D03*
X92710000Y-132080000D03*
X93980000Y-129540000D03*
X99060000Y-132080000D03*
X100330000Y-129540000D03*
X101600000Y-132080000D03*
X102870000Y-129540000D03*
X104140000Y-132080000D03*
X105410000Y-129540000D03*
X106680000Y-132080000D03*
X107950000Y-129540000D03*
%TD*%
D27*
%TO.C,D1*%
X67310000Y-94615000D03*
D28*
X67310000Y-92075000D03*
%TD*%
D29*
%TO.C,SW1*%
X47183000Y-103760000D03*
D30*
X47183000Y-99060000D03*
X47183000Y-94360000D03*
X37653000Y-105665000D03*
X37653000Y-92455000D03*
%TD*%
D12*
%TO.C,J17*%
X185665001Y-74930000D03*
X185665001Y-84980002D03*
D11*
X187960000Y-76830001D03*
X187960000Y-78080001D03*
X187960000Y-79330001D03*
X187960000Y-80580001D03*
X187960000Y-81830001D03*
X187960000Y-83080001D03*
%TD*%
%TO.C,J14*%
X200000052Y-112399999D03*
X200000052Y-111149999D03*
X200000052Y-109899999D03*
X200000052Y-108649999D03*
X200000052Y-107399999D03*
X200000052Y-106149999D03*
D12*
X197705053Y-114300000D03*
X197705053Y-104249998D03*
%TD*%
D14*
%TO.C,J20*%
X85577680Y-44312840D03*
X84576920Y-44312840D03*
X83581240Y-44312840D03*
X82580480Y-44312840D03*
D15*
X81280000Y-40640000D03*
X86878160Y-40640000D03*
%TD*%
D14*
%TO.C,J12*%
X63564347Y-44312840D03*
X62563587Y-44312840D03*
X61567907Y-44312840D03*
X60567147Y-44312840D03*
D15*
X59266667Y-40640000D03*
X64864827Y-40640000D03*
%TD*%
D17*
%TO.C,TP1*%
X63500000Y-76200000D03*
%TD*%
D11*
%TO.C,J10*%
X187960000Y-112399999D03*
X187960000Y-111149999D03*
X187960000Y-109899999D03*
X187960000Y-108649999D03*
X187960000Y-107399999D03*
X187960000Y-106149999D03*
D12*
X185665001Y-114300000D03*
X185665001Y-104249998D03*
%TD*%
D18*
%TO.C,J4*%
X60960000Y-58420000D03*
D19*
X60960000Y-60960000D03*
X60960000Y-63500000D03*
%TD*%
D16*
%TO.C,H2*%
X40640000Y-144780000D03*
%TD*%
%TO.C,H1*%
X40640000Y-40640000D03*
%TD*%
D12*
%TO.C,J22*%
X197705053Y-42573333D03*
X197705053Y-52623335D03*
D11*
X200000052Y-44473334D03*
X200000052Y-45723334D03*
X200000052Y-46973334D03*
X200000052Y-48223334D03*
X200000052Y-49473334D03*
X200000052Y-50723334D03*
%TD*%
D12*
%TO.C,J9*%
X185665001Y-133404999D03*
X185665001Y-143455001D03*
D11*
X187960000Y-135305000D03*
X187960000Y-136555000D03*
X187960000Y-137805000D03*
X187960000Y-139055000D03*
X187960000Y-140305000D03*
X187960000Y-141555000D03*
%TD*%
D17*
%TO.C,TP2*%
X55880000Y-118110000D03*
%TD*%
D18*
%TO.C,J6*%
X83820000Y-71120000D03*
D19*
X83820000Y-73660000D03*
X83820000Y-76200000D03*
X83820000Y-78740000D03*
X83820000Y-81280000D03*
X83820000Y-83820000D03*
X83820000Y-86360000D03*
X83820000Y-88900000D03*
X83820000Y-91440000D03*
X83820000Y-93980000D03*
X83820000Y-96520000D03*
X83820000Y-99060000D03*
%TD*%
D14*
%TO.C,J11*%
X52557680Y-44312840D03*
X51556920Y-44312840D03*
X50561240Y-44312840D03*
X49560480Y-44312840D03*
D15*
X48260000Y-40640000D03*
X53858160Y-40640000D03*
%TD*%
D22*
%TO.C,J1*%
X162560000Y-51110000D03*
D23*
X157480000Y-46030000D03*
D22*
X160020000Y-51110000D03*
D23*
X167640000Y-46030000D03*
%TD*%
D12*
%TO.C,J13*%
X197705053Y-133404999D03*
X197705053Y-143455001D03*
D11*
X200000052Y-135305000D03*
X200000052Y-136555000D03*
X200000052Y-137805000D03*
X200000052Y-139055000D03*
X200000052Y-140305000D03*
X200000052Y-141555000D03*
%TD*%
D19*
%TO.C,J3*%
X48260000Y-63500000D03*
X48260000Y-60960000D03*
D18*
X48260000Y-58420000D03*
%TD*%
D16*
%TO.C,H5*%
X220980000Y-144780000D03*
%TD*%
D31*
%TO.C,U1*%
X93980000Y-38100000D03*
D10*
X93980000Y-40640000D03*
X93980000Y-43180000D03*
X93980000Y-45720000D03*
X93980000Y-48260000D03*
X93980000Y-50800000D03*
X93980000Y-53340000D03*
X93980000Y-55880000D03*
X93980000Y-58420000D03*
X93980000Y-60960000D03*
X93980000Y-63500000D03*
X93980000Y-66040000D03*
X93980000Y-68580000D03*
X93980000Y-71120000D03*
X93980000Y-73660000D03*
X93980000Y-76200000D03*
X93980000Y-78740000D03*
X93980000Y-81280000D03*
X93980000Y-83820000D03*
X93980000Y-86360000D03*
X93980000Y-88900000D03*
X93980000Y-91440000D03*
X93980000Y-93980000D03*
X93980000Y-96520000D03*
X109220000Y-96520000D03*
X109220000Y-93980000D03*
X109220000Y-91440000D03*
X109220000Y-88900000D03*
X109220000Y-86360000D03*
X109220000Y-83820000D03*
X109220000Y-81280000D03*
X109220000Y-78740000D03*
X109220000Y-76200000D03*
X109220000Y-73660000D03*
X109220000Y-71120000D03*
X109220000Y-68580000D03*
X109220000Y-66040000D03*
X109220000Y-63500000D03*
X109220000Y-60960000D03*
X109220000Y-58420000D03*
X109220000Y-55880000D03*
X109220000Y-53340000D03*
X109220000Y-50800000D03*
X109220000Y-48260000D03*
X109220000Y-45720000D03*
X109220000Y-43180000D03*
X109220000Y-40640000D03*
X109220000Y-38100000D03*
%TD*%
M02*
