M48
; DRILL file {KiCad 9.0.4} date 2026-01-14T14:58:24-0500
; FORMAT={-:-/ absolute / inch / decimal}
; #@! TF.CreationDate,2026-01-14T14:58:24-05:00
; #@! TF.GenerationSoftware,Kicad,Pcbnew,9.0.4
; #@! TF.FileFunction,Plated,1,2,PTH
FMAT,2
INCH
; #@! TA.AperFunction,Plated,PTH,ViaDrill
T1C0.0118
; #@! TA.AperFunction,Plated,PTH,ViaDrill
T2C0.0150
; #@! TA.AperFunction,Plated,PTH,ComponentDrill
T3C0.0315
; #@! TA.AperFunction,Plated,PTH,ComponentDrill
T4C0.0350
; #@! TA.AperFunction,Plated,PTH,ComponentDrill
T5C0.0350
; #@! TA.AperFunction,Plated,PTH,ComponentDrill
T6C0.0354
; #@! TA.AperFunction,Plated,PTH,ComponentDrill
T7C0.0394
; #@! TA.AperFunction,Plated,PTH,ComponentDrill
T8C0.0433
; #@! TA.AperFunction,Plated,PTH,ComponentDrill
T9C0.0630
; #@! TA.AperFunction,Plated,PTH,ComponentDrill
T10C0.0728
; #@! TA.AperFunction,Plated,PTH,ComponentDrill
T11C0.0791
%
G90
G05
T1
X2.0Y-1.8
X2.15Y-1.8
X2.85Y-1.8
X3.2Y-1.8
X3.31Y-4.02
X3.51Y-1.89
X3.54Y-3.93
X3.56Y-1.89
X3.59Y-4.08
X3.63Y-4.1
X4.16Y-3.01
X4.17Y-4.13
X4.18Y-3.1
X4.3Y-4.07
X5.62Y-3.1724
X5.6209Y-3.2709
X7.31Y-4.37
X7.44Y-3.92
X7.78Y-4.37
X7.78Y-5.53
X7.8Y-1.95
X7.8Y-3.24
X8.31Y-1.95
X8.31Y-4.38
X8.45Y-2.05
X8.45Y-3.25
X8.45Y-4.4
X8.45Y-5.45
X8.5Y-1.95
X8.5Y-3.1
X8.5Y-4.5
X8.5Y-5.45
T2
X2.22Y-1.64
X2.65Y-1.64
X2.8965Y-1.8465
X3.1Y-1.7
X3.99Y-2.11
X8.03Y-5.53
X8.07Y-3.22
T3
X2.65Y-3.925
X2.65Y-4.325
X4.8Y-3.15
X4.8Y-3.55
X4.95Y-3.15
X4.95Y-3.55
X5.1Y-3.15
X5.1Y-3.55
X5.25Y-3.15
X5.25Y-3.55
X5.95Y-2.7
X5.95Y-3.1
X5.95Y-3.65
X5.95Y-4.05
X6.1Y-2.7
X6.1Y-3.1
X6.1Y-3.65
X6.1Y-4.05
X6.25Y-2.7
X6.25Y-3.1
X6.25Y-3.65
X6.25Y-4.05
X6.4Y-2.7
X6.4Y-3.1
X6.4Y-3.65
X6.4Y-4.05
T4
X2.25Y-5.2
X2.3Y-5.1
X2.35Y-5.2
X2.4Y-5.1
X2.45Y-5.2
X2.5Y-5.1
X2.55Y-5.2
X2.6Y-5.1
X2.8Y-5.2
X2.85Y-5.1
X2.9Y-5.2
X2.95Y-5.1
X3.0Y-5.2
X3.05Y-5.1
X3.1Y-5.2
X3.15Y-5.1
X3.35Y-5.2
X3.4Y-5.1
X3.45Y-5.2
X3.5Y-5.1
X3.55Y-5.2
X3.6Y-5.1
X3.65Y-5.2
X3.7Y-5.1
X3.9Y-5.2
X3.95Y-5.1
X4.0Y-5.2
X4.05Y-5.1
X4.1Y-5.2
X4.15Y-5.1
X4.2Y-5.2
X4.25Y-5.1
T5
X5.2Y-2.0122
X5.3Y-2.0122
X6.3Y-2.0122
X6.4Y-2.0122
T6
X2.65Y-3.625
X2.65Y-3.725
T7
X1.9Y-2.3
X1.9Y-2.4
X1.9Y-2.5
X2.2Y-4.65
X2.4Y-2.3
X2.4Y-2.4
X2.4Y-2.5
X2.5Y-3.0
X2.9Y-2.3
X2.9Y-2.4
X2.9Y-2.5
X2.9Y-3.0
X3.3Y-2.8
X3.3Y-2.9
X3.3Y-3.0
X3.3Y-3.1
X3.3Y-3.2
X3.3Y-3.3
X3.3Y-3.4
X3.3Y-3.5
X3.3Y-3.6
X3.3Y-3.7
X3.3Y-3.8
X3.3Y-3.9
T8
X3.7Y-1.5
X3.7Y-1.6
X3.7Y-1.7
X3.7Y-1.8
X3.7Y-1.9
X3.7Y-2.0
X3.7Y-2.1
X3.7Y-2.2
X3.7Y-2.3
X3.7Y-2.4
X3.7Y-2.5
X3.7Y-2.6
X3.7Y-2.7
X3.7Y-2.8
X3.7Y-2.9
X3.7Y-3.0
X3.7Y-3.1
X3.7Y-3.2
X3.7Y-3.3
X3.7Y-3.4
X3.7Y-3.5
X3.7Y-3.6
X3.7Y-3.7
X3.7Y-3.8
X4.3Y-1.5
X4.3Y-1.6
X4.3Y-1.7
X4.3Y-1.8
X4.3Y-1.9
X4.3Y-2.0
X4.3Y-2.1
X4.3Y-2.2
X4.3Y-2.3
X4.3Y-2.4
X4.3Y-2.5
X4.3Y-2.6
X4.3Y-2.7
X4.3Y-2.8
X4.3Y-2.9
X4.3Y-3.0
X4.3Y-3.1
X4.3Y-3.2
X4.3Y-3.3
X4.3Y-3.4
X4.3Y-3.5
X4.3Y-3.6
X4.3Y-3.7
X4.3Y-3.8
T9
X1.5638Y-3.0
X1.6819Y-3.185
X1.8Y-3.0
T10
X1.4824Y-3.64
X1.4824Y-4.16
X1.8576Y-3.715
X1.8576Y-3.9
X1.8576Y-4.085
T11
X5.1Y-1.8122
X5.5Y-1.8122
X6.2Y-1.8122
X6.6Y-1.8122
M30
