%TF.GenerationSoftware,KiCad,Pcbnew,9.0.4*%
%TF.CreationDate,2026-01-14T14:58:22-05:00*%
%TF.ProjectId,Datta Lab Humidity Chamber PCB,44617474-6120-44c6-9162-2048756d6964,1.0*%
%TF.SameCoordinates,Original*%
%TF.FileFunction,Soldermask,Bot*%
%TF.FilePolarity,Negative*%
%FSLAX46Y46*%
G04 Gerber Fmt 4.6, Leading zero omitted, Abs format (unit mm)*
G04 Created by KiCad (PCBNEW 9.0.4) date 2026-01-14 14:58:22*
%MOMM*%
%LPD*%
G01*
G04 APERTURE LIST*
G04 Aperture macros list*
%AMRoundRect*
0 Rectangle with rounded corners*
0 $1 Rounding radius*
0 $2 $3 $4 $5 $6 $7 $8 $9 X,Y pos of 4 corners*
0 Add a 4 corners polygon primitive as box body*
4,1,4,$2,$3,$4,$5,$6,$7,$8,$9,$2,$3,0*
0 Add four circle primitives for the rounded corners*
1,1,$1+$1,$2,$3*
1,1,$1+$1,$4,$5*
1,1,$1+$1,$6,$7*
1,1,$1+$1,$8,$9*
0 Add four rect primitives between the rounded corners*
20,1,$1+$1,$2,$3,$4,$5,0*
20,1,$1+$1,$4,$5,$6,$7,0*
20,1,$1+$1,$6,$7,$8,$9,0*
20,1,$1+$1,$8,$9,$2,$3,0*%
G04 Aperture macros list end*
%ADD10C,1.600000*%
%ADD11O,1.600000X1.600000*%
%ADD12C,3.200000*%
%ADD13C,2.000000*%
%ADD14R,1.700000X1.700000*%
%ADD15C,1.700000*%
%ADD16R,2.600000X2.600000*%
%ADD17C,2.600000*%
%ADD18O,1.600000X2.500000*%
%ADD19O,3.500000X7.000000*%
%ADD20C,1.397000*%
%ADD21R,1.800000X1.800000*%
%ADD22C,1.800000*%
%ADD23RoundRect,0.102000X1.387500X-1.387500X1.387500X1.387500X-1.387500X1.387500X-1.387500X-1.387500X0*%
%ADD24C,2.979000*%
%ADD25R,1.600000X1.600000*%
G04 APERTURE END LIST*
D10*
%TO.C,R7*%
X162560000Y-102870000D03*
X162560000Y-92710000D03*
%TD*%
%TO.C,R5*%
X158750000Y-92710000D03*
X158750000Y-102870000D03*
%TD*%
%TO.C,R3*%
X129540000Y-80010000D03*
X129540000Y-90170000D03*
%TD*%
%TO.C,R12*%
X162560000Y-68580000D03*
X162560000Y-78740000D03*
%TD*%
%TO.C,R10*%
X121920000Y-80010000D03*
X121920000Y-90170000D03*
%TD*%
%TO.C,R4*%
X133350000Y-80010000D03*
X133350000Y-90170000D03*
%TD*%
%TO.C,R6*%
X158750000Y-78740000D03*
X158750000Y-68580000D03*
%TD*%
%TO.C,R13*%
X154940000Y-92710000D03*
X154940000Y-102870000D03*
%TD*%
%TO.C,R11*%
X151130000Y-102870000D03*
X151130000Y-92710000D03*
%TD*%
%TO.C,R8*%
X154940000Y-78740000D03*
X154940000Y-68580000D03*
%TD*%
%TO.C,R2*%
X151130000Y-68580000D03*
X151130000Y-78740000D03*
%TD*%
%TO.C,R1*%
X67310000Y-99695000D03*
D11*
X67310000Y-109855000D03*
%TD*%
D10*
%TO.C,R9*%
X125730000Y-90170000D03*
X125730000Y-80010000D03*
%TD*%
D12*
%TO.C,H6*%
X220980000Y-40640000D03*
%TD*%
D13*
%TO.C,TP3*%
X73660000Y-76200000D03*
%TD*%
D14*
%TO.C,J5*%
X73660000Y-58420000D03*
D15*
X73660000Y-60960000D03*
X73660000Y-63500000D03*
%TD*%
D16*
%TO.C,J7*%
X45720000Y-76200000D03*
D17*
X39720000Y-76200000D03*
X42720000Y-80900000D03*
%TD*%
D18*
%TO.C,J2*%
X134620000Y-51110000D03*
D19*
X129540000Y-46030000D03*
D18*
X132080000Y-51110000D03*
D19*
X139700000Y-46030000D03*
%TD*%
D20*
%TO.C,J8*%
X57150000Y-132080000D03*
X58420000Y-129540000D03*
X59690000Y-132080000D03*
X60960000Y-129540000D03*
X62230000Y-132080000D03*
X63500000Y-129540000D03*
X64770000Y-132080000D03*
X66040000Y-129540000D03*
X71120000Y-132080000D03*
X72390000Y-129540000D03*
X73660000Y-132080000D03*
X74930000Y-129540000D03*
X76200000Y-132080000D03*
X77470000Y-129540000D03*
X78740000Y-132080000D03*
X80010000Y-129540000D03*
X85090000Y-132080000D03*
X86360000Y-129540000D03*
X87630000Y-132080000D03*
X88900000Y-129540000D03*
X90170000Y-132080000D03*
X91440000Y-129540000D03*
X92710000Y-132080000D03*
X93980000Y-129540000D03*
X99060000Y-132080000D03*
X100330000Y-129540000D03*
X101600000Y-132080000D03*
X102870000Y-129540000D03*
X104140000Y-132080000D03*
X105410000Y-129540000D03*
X106680000Y-132080000D03*
X107950000Y-129540000D03*
%TD*%
D21*
%TO.C,D1*%
X67310000Y-94615000D03*
D22*
X67310000Y-92075000D03*
%TD*%
D23*
%TO.C,SW1*%
X47183000Y-103760000D03*
D24*
X47183000Y-99060000D03*
X47183000Y-94360000D03*
X37653000Y-105665000D03*
X37653000Y-92455000D03*
%TD*%
D13*
%TO.C,TP1*%
X63500000Y-76200000D03*
%TD*%
D14*
%TO.C,J4*%
X60960000Y-58420000D03*
D15*
X60960000Y-60960000D03*
X60960000Y-63500000D03*
%TD*%
D12*
%TO.C,H2*%
X40640000Y-144780000D03*
%TD*%
%TO.C,H1*%
X40640000Y-40640000D03*
%TD*%
D13*
%TO.C,TP2*%
X55880000Y-118110000D03*
%TD*%
D14*
%TO.C,J6*%
X83820000Y-71120000D03*
D15*
X83820000Y-73660000D03*
X83820000Y-76200000D03*
X83820000Y-78740000D03*
X83820000Y-81280000D03*
X83820000Y-83820000D03*
X83820000Y-86360000D03*
X83820000Y-88900000D03*
X83820000Y-91440000D03*
X83820000Y-93980000D03*
X83820000Y-96520000D03*
X83820000Y-99060000D03*
%TD*%
D18*
%TO.C,J1*%
X162560000Y-51110000D03*
D19*
X157480000Y-46030000D03*
D18*
X160020000Y-51110000D03*
D19*
X167640000Y-46030000D03*
%TD*%
D15*
%TO.C,J3*%
X48260000Y-63500000D03*
X48260000Y-60960000D03*
D14*
X48260000Y-58420000D03*
%TD*%
D12*
%TO.C,H5*%
X220980000Y-144780000D03*
%TD*%
D25*
%TO.C,U1*%
X93980000Y-38100000D03*
D10*
X93980000Y-40640000D03*
X93980000Y-43180000D03*
X93980000Y-45720000D03*
X93980000Y-48260000D03*
X93980000Y-50800000D03*
X93980000Y-53340000D03*
X93980000Y-55880000D03*
X93980000Y-58420000D03*
X93980000Y-60960000D03*
X93980000Y-63500000D03*
X93980000Y-66040000D03*
X93980000Y-68580000D03*
X93980000Y-71120000D03*
X93980000Y-73660000D03*
X93980000Y-76200000D03*
X93980000Y-78740000D03*
X93980000Y-81280000D03*
X93980000Y-83820000D03*
X93980000Y-86360000D03*
X93980000Y-88900000D03*
X93980000Y-91440000D03*
X93980000Y-93980000D03*
X93980000Y-96520000D03*
X109220000Y-96520000D03*
X109220000Y-93980000D03*
X109220000Y-91440000D03*
X109220000Y-88900000D03*
X109220000Y-86360000D03*
X109220000Y-83820000D03*
X109220000Y-81280000D03*
X109220000Y-78740000D03*
X109220000Y-76200000D03*
X109220000Y-73660000D03*
X109220000Y-71120000D03*
X109220000Y-68580000D03*
X109220000Y-66040000D03*
X109220000Y-63500000D03*
X109220000Y-60960000D03*
X109220000Y-58420000D03*
X109220000Y-55880000D03*
X109220000Y-53340000D03*
X109220000Y-50800000D03*
X109220000Y-48260000D03*
X109220000Y-45720000D03*
X109220000Y-43180000D03*
X109220000Y-40640000D03*
X109220000Y-38100000D03*
%TD*%
M02*
