%TF.GenerationSoftware,KiCad,Pcbnew,9.0.4*%
%TF.CreationDate,2026-01-14T14:58:21-05:00*%
%TF.ProjectId,Datta Lab Humidity Chamber PCB,44617474-6120-44c6-9162-2048756d6964,1.0*%
%TF.SameCoordinates,Original*%
%TF.FileFunction,Paste,Top*%
%TF.FilePolarity,Positive*%
%FSLAX46Y46*%
G04 Gerber Fmt 4.6, Leading zero omitted, Abs format (unit mm)*
G04 Created by KiCad (PCBNEW 9.0.4) date 2026-01-14 14:58:21*
%MOMM*%
%LPD*%
G01*
G04 APERTURE LIST*
%ADD10R,1.295400X0.838200*%
%ADD11R,2.260600X1.397000*%
%ADD12R,0.599440X1.348740*%
%ADD13R,1.198880X1.998980*%
G04 APERTURE END LIST*
D10*
%TO.C,J16*%
X213114999Y-112436665D03*
X213114999Y-111186665D03*
X213114999Y-109936665D03*
X213114999Y-108686665D03*
X213114999Y-107436665D03*
X213114999Y-106186665D03*
D11*
X210820000Y-114336666D03*
X210820000Y-104286664D03*
%TD*%
%TO.C,J24*%
X210820000Y-42573333D03*
X210820000Y-52623335D03*
D10*
X213114999Y-44473334D03*
X213114999Y-45723334D03*
X213114999Y-46973334D03*
X213114999Y-48223334D03*
X213114999Y-49473334D03*
X213114999Y-50723334D03*
%TD*%
D11*
%TO.C,J23*%
X210820000Y-74948333D03*
X210820000Y-84998335D03*
D10*
X213114999Y-76848334D03*
X213114999Y-78098334D03*
X213114999Y-79348334D03*
X213114999Y-80598334D03*
X213114999Y-81848334D03*
X213114999Y-83098334D03*
%TD*%
D11*
%TO.C,J15*%
X210820000Y-133459998D03*
X210820000Y-143510000D03*
D10*
X213114999Y-135359999D03*
X213114999Y-136609999D03*
X213114999Y-137859999D03*
X213114999Y-139109999D03*
X213114999Y-140359999D03*
X213114999Y-141609999D03*
%TD*%
D11*
%TO.C,J21*%
X197705053Y-74930000D03*
X197705053Y-84980002D03*
D10*
X200000052Y-76830001D03*
X200000052Y-78080001D03*
X200000052Y-79330001D03*
X200000052Y-80580001D03*
X200000052Y-81830001D03*
X200000052Y-83080001D03*
%TD*%
D12*
%TO.C,J19*%
X74571013Y-44312840D03*
X73570253Y-44312840D03*
X72574573Y-44312840D03*
X71573813Y-44312840D03*
D13*
X70273333Y-40640000D03*
X75871493Y-40640000D03*
%TD*%
D11*
%TO.C,J18*%
X185665001Y-42573333D03*
X185665001Y-52623335D03*
D10*
X187960000Y-44473334D03*
X187960000Y-45723334D03*
X187960000Y-46973334D03*
X187960000Y-48223334D03*
X187960000Y-49473334D03*
X187960000Y-50723334D03*
%TD*%
D11*
%TO.C,J17*%
X185665001Y-74930000D03*
X185665001Y-84980002D03*
D10*
X187960000Y-76830001D03*
X187960000Y-78080001D03*
X187960000Y-79330001D03*
X187960000Y-80580001D03*
X187960000Y-81830001D03*
X187960000Y-83080001D03*
%TD*%
%TO.C,J14*%
X200000052Y-112399999D03*
X200000052Y-111149999D03*
X200000052Y-109899999D03*
X200000052Y-108649999D03*
X200000052Y-107399999D03*
X200000052Y-106149999D03*
D11*
X197705053Y-114300000D03*
X197705053Y-104249998D03*
%TD*%
D12*
%TO.C,J20*%
X85577680Y-44312840D03*
X84576920Y-44312840D03*
X83581240Y-44312840D03*
X82580480Y-44312840D03*
D13*
X81280000Y-40640000D03*
X86878160Y-40640000D03*
%TD*%
D12*
%TO.C,J12*%
X63564347Y-44312840D03*
X62563587Y-44312840D03*
X61567907Y-44312840D03*
X60567147Y-44312840D03*
D13*
X59266667Y-40640000D03*
X64864827Y-40640000D03*
%TD*%
D10*
%TO.C,J10*%
X187960000Y-112399999D03*
X187960000Y-111149999D03*
X187960000Y-109899999D03*
X187960000Y-108649999D03*
X187960000Y-107399999D03*
X187960000Y-106149999D03*
D11*
X185665001Y-114300000D03*
X185665001Y-104249998D03*
%TD*%
%TO.C,J22*%
X197705053Y-42573333D03*
X197705053Y-52623335D03*
D10*
X200000052Y-44473334D03*
X200000052Y-45723334D03*
X200000052Y-46973334D03*
X200000052Y-48223334D03*
X200000052Y-49473334D03*
X200000052Y-50723334D03*
%TD*%
D11*
%TO.C,J9*%
X185665001Y-133404999D03*
X185665001Y-143455001D03*
D10*
X187960000Y-135305000D03*
X187960000Y-136555000D03*
X187960000Y-137805000D03*
X187960000Y-139055000D03*
X187960000Y-140305000D03*
X187960000Y-141555000D03*
%TD*%
D12*
%TO.C,J11*%
X52557680Y-44312840D03*
X51556920Y-44312840D03*
X50561240Y-44312840D03*
X49560480Y-44312840D03*
D13*
X48260000Y-40640000D03*
X53858160Y-40640000D03*
%TD*%
D11*
%TO.C,J13*%
X197705053Y-133404999D03*
X197705053Y-143455001D03*
D10*
X200000052Y-135305000D03*
X200000052Y-136555000D03*
X200000052Y-137805000D03*
X200000052Y-139055000D03*
X200000052Y-140305000D03*
X200000052Y-141555000D03*
%TD*%
M02*
